<?xml version="1.0" encoding="UTF-8"?>
<svg id="_레이어_2" data-name="레이어 2" xmlns="http://www.w3.org/2000/svg" viewBox="0 0 290.57 250.17">
  <defs>
    <style>
      .cls-1 {
        fill: #fff;
      }
    </style>
  </defs>
  <g id="_레이어_2-2" data-name=" 레이어 2">
    <g id="_레이어_1-2" data-name=" 레이어 1-2">
      <g id="Q7r53s.tif">
        <g>
          <path class="cls-1" d="M240.53,59.88c-.67-.66.85-14.86,1.25-17.18,2.03-11.75,20.39-43.97-4.77-42.66-22.44,1.17-4.7,31.76-2.72,43.65.37,2.19,1.53,14.22.81,15.25-1.66,2.38-16.29-1.6-19.45-2.59-8.09-2.55-19.22-11.25-26.97-2.97-4.36,4.66-4.67,16.07,1.64,19.32,10.71,5.52,32.57-10.6,45.22-7.84-1.55,17.7-.64,35.35-11.87,50.25,12.78,36.36,9.95,74.9,12.81,112.65.13,1.7-.11,3.29,1.55,4.42,1.03-.94,1.37-3.11,1.5-4.47,1.22-12.47.2-27.19.95-39.89,1.46-24.71,4.55-49.18,11.79-72.89-11.27-14.74-10.72-32.43-11.75-50.09,12.64-2.93,36.81,15.12,46.9,6.54,4.5-3.83,3.88-13.9-.04-18.01-7.98-8.36-21.95,1.65-30.91,4.01-2.14.57-15.37,3.06-15.95,2.49h.01ZM163.8,67.85c-.49-15.32-.16-31.02-1.01-46.31-.12-2.24-.78-11.72-1.14-12.81-.39-1.21-1.13-1.61-2.36-1.72-3.52-.31-6.32,8.58-13.95,9.1-6.58.44-21.41-5.34-29.2-6.72C38.91-4.31-15.17,57.54,3.83,132.6c8.67,34.24,35.77,57.42,70.84,61.69,2.07,2.83-8.54,19.21-7.5,23.38.63,2.53,7.87-.49,10.42-.49,6.46,0,12.28,3.09,13.02,9.97,1.82,16.92-23.23,14.09-33.41,10.03-.07,3.32-5.03,6.54-1.43,8.85,2.69,1.73,18.19,4.15,21.78,4.12,17.03-.12,37.75-9.05,31.77-29.75-3.19-11.04-19.44-14.19-29.22-11.13,1.59-3.49,3.96-14.29,7.47-14.94,4.2-.78,10.41.43,14.99.04,19.22-1.62,39.38-10.24,53.8-22.92,4.29-3.77,15.9-12.79,6.09-15.89-31.5,32.05-86.89,39.63-115.65-.16C19.27,117.35,28.32,34.5,79.64,20.09c37.45-10.51,69.49,11.15,78.27,47.65l5.89.1h0Z"/>
          <path d="M163.8,67.85l-5.89-.1c-8.78-36.5-40.83-58.17-78.27-47.65-51.32,14.41-60.36,97.26-32.85,135.32,28.76,39.79,84.15,32.21,115.65.16,9.82,3.1-1.8,12.12-6.09,15.89-14.42,12.68-34.59,21.31-53.8,22.92-4.58.38-10.79-.82-14.99-.04-3.51.65-5.88,11.45-7.47,14.94,9.78-3.05,26.03.1,29.22,11.13,5.98,20.7-14.73,29.63-31.77,29.75-3.59.03-19.09-2.39-21.78-4.12-3.6-2.31,1.36-5.54,1.43-8.85,10.17,4.06,35.22,6.89,33.41-10.03-.74-6.88-6.55-9.96-13.02-9.97-2.55,0-9.79,3.01-10.42.49-1.04-4.17,9.58-20.55,7.5-23.38-35.07-4.27-62.17-27.45-70.84-61.69C-15.17,57.54,38.91-4.31,116.14,9.39c7.8,1.38,22.62,7.17,29.2,6.72,7.63-.52,10.43-9.41,13.95-9.1,1.22.11,1.97.5,2.36,1.72.35,1.09,1.01,10.57,1.14,12.81.85,15.29.52,30.99,1.01,46.31h0Z"/>
          <path d="M240.53,59.88c.59.58,13.81-1.92,15.95-2.49,8.96-2.37,22.93-12.37,30.91-4.01,3.92,4.11,4.54,14.18.04,18.01-10.1,8.58-34.26-9.46-46.9-6.54,1.03,17.65.47,35.34,11.75,50.09-7.24,23.7-10.33,48.17-11.79,72.89-.75,12.7.27,27.42-.95,39.89-.13,1.36-.47,3.53-1.5,4.47-1.66-1.13-1.42-2.72-1.55-4.42-2.86-37.76-.03-76.29-12.81-112.65,11.23-14.9,10.32-32.56,11.87-50.25-12.65-2.76-34.51,13.36-45.22,7.84-6.31-3.25-6-14.66-1.64-19.32,7.75-8.28,18.88.42,26.97,2.97,3.16,1,17.79,4.97,19.45,2.59.72-1.03-.44-13.06-.81-15.25-1.99-11.89-19.72-42.48,2.72-43.65,25.16-1.31,6.8,30.91,4.77,42.66-.4,2.32-1.92,16.52-1.25,17.18h-.01Z"/>
        </g>
      </g>
    </g>
  </g>
</svg>